<?xml version="1.0" encoding="utf-8"?>
<!-- Generator: Adobe Illustrator 22.0.1, SVG Export Plug-In . SVG Version: 6.00 Build 0)  -->
<svg version="1.1" id="Calque_1" xmlns="http://www.w3.org/2000/svg" xmlns:xlink="http://www.w3.org/1999/xlink" x="0px" y="0px"
	 viewBox="0 0 100 100" style="enable-background:new 0 0 100 100;" xml:space="preserve">
<style type="text/css">
	.st0{fill:#FFFFFF;}
</style>
<path class="st0" d="M7.2,62.6h52.5c1.2,0,2.2-1,2.2-2.2V24.6c0-3.6-2.9-6.5-6.6-6.5H11.6c-3.7,0-6.6,2.9-6.6,6.5v35.8
	C5,61.6,6,62.6,7.2,62.6z"/>
<path class="st0" d="M13.9,64.8H7.2C6,64.8,5,65.8,5,67V70c0,2.4,2,4.3,4.4,4.3h1.4c0.2,0,0.4-0.2,0.4-0.4c0,0,0,0,0-0.1
	c0-0.2,0-0.4,0-0.7c0-0.2,0-0.5,0-0.7c0-0.1,0-0.1,0-0.1c0.2-2.7,1.2-5.1,2.9-7C14.5,65.1,14.4,64.8,13.9,64.8z"/>
<path class="st0" d="M22.6,64.3c-4.8,0-8.7,3.9-8.7,8.8c0,4.8,3.9,8.7,8.7,8.7s8.7-3.9,8.7-8.7C31.3,68.3,27.4,64.3,22.6,64.3z
	 M22.6,76.5c-1.9,0-3.3-1.6-3.3-3.3c0-1.9,1.5-3.3,3.3-3.3s3.3,1.5,3.3,3.3C25.9,74.9,24.4,76.5,22.6,76.5z"/>
<path class="st0" d="M78.8,64.3c-4.8,0-8.7,3.9-8.7,8.8c0,4.8,3.9,8.7,8.7,8.7s8.7-3.9,8.7-8.7C87.6,68.3,83.6,64.3,78.8,64.3z
	 M78.8,76.5c-1.9,0-3.3-1.6-3.3-3.3c0-1.9,1.5-3.3,3.3-3.3s3.3,1.5,3.3,3.3C82.2,74.9,80.7,76.5,78.8,76.5z"/>
<path class="st0" d="M93.5,64.9V53.8c0-1.1-0.6-2.9-1.3-3.9L79.9,33.1c-0.7-1-2.3-1.7-3.5-1.7h-7.8c-2.4,0-4.4,2-4.4,4.3v27.8
	c0,0.7-0.6,1.3-1.3,1.3H31.2c-0.5,0-0.6,0.2-0.2,0.6c1.7,1.9,2.8,4.3,2.9,7c0,0,0,0,0,0.1c0.1,0.2,0.1,0.4,0.1,0.7
	c0,0.2,0,0.4-0.1,0.7v0.1c0,0.2,0.2,0.4,0.4,0.4h32.8c0.2,0,0.4-0.2,0.4-0.4c-0.1-0.2-0.1-0.5-0.1-0.7c0-6.3,5.1-11.4,11.4-11.4
	s11.4,5.1,11.4,11.4c0,0.2-0.1,0.5-0.1,0.7s0.2,0.4,0.4,0.4c2.5,0,4.4-2,4.4-4.3V67C95,66,94.3,65.2,93.5,64.9z M84.5,51.1
	c0,0.7-0.6,1.3-1.3,1.3H71.2c-0.7,0-1.3-0.6-1.3-1.3V38.5c0-0.7,0.6-1.3,1.3-1.3h3.1c0.7,0,1.6,0.4,2,1.1l7.4,9.8
	c0.4,0.6,0.7,1.6,0.7,2C84.5,50.1,84.5,51.1,84.5,51.1z"/>
</svg>
