<?xml version="1.0" encoding="utf-8"?>
<!-- Generator: Adobe Illustrator 22.0.1, SVG Export Plug-In . SVG Version: 6.00 Build 0)  -->
<svg version="1.1" id="Calque_1" xmlns="http://www.w3.org/2000/svg" xmlns:xlink="http://www.w3.org/1999/xlink" x="0px" y="0px"
	 viewBox="0 0 52 52" style="enable-background:new 0 0 52 52;" xml:space="preserve">
<style type="text/css">
	.st0{fill:#FFFFFF;}
</style>
<g>
	<path class="st0" d="M15.8,26.4c0.4,0.4,0.9,0.7,1.5,0.9l10-10c-0.2-0.5-0.5-1-0.9-1.5L14.7,4.2C13.3,2.8,11.4,2,9.4,2
		C7.5,2,5.7,2.7,4.3,4S2.1,7.2,2,9.2c0,2.1,0.8,4.2,2.3,5.7L15.8,26.4z M7.8,7.9c0.4-0.4,1-0.4,1.4,0l11,11c0.4,0.4,0.4,1,0,1.4
		c-0.2,0.2-0.5,0.3-0.7,0.3s-0.5-0.1-0.7-0.3l-11-11C7.4,8.9,7.4,8.2,7.8,7.9z"/>
	<path class="st0" d="M49.8,44.3L45,38.1c-0.2-0.2-0.5-0.4-0.8-0.4h-1.4L32.2,27.2l-5.1,5.1l10.6,10.6v1.4c0,0.3,0.1,0.6,0.4,0.8
		l6.2,4.8c0.2,0.1,0.4,0.2,0.6,0.2c0.3,0,0.5-0.1,0.7-0.3l4.1-4.1C50.1,45.2,50.1,44.7,49.8,44.3z"/>
	<path class="st0" d="M39.6,17c0.9,0.3,1.8,0.5,2.7,0.5c2.1,0,4-0.8,5.5-2.3c3-3,3-7.9,0-10.9C46.2,2.8,44.3,2,42.2,2
		s-4,0.8-5.5,2.3c-2.1,2.2-2.8,5.3-1.8,8.1L12.4,35c-0.9-0.3-1.8-0.5-2.7-0.5c-2.1,0-4,0.8-5.5,2.2C2,39,1.4,42.3,2.6,45.3
		c0.1,0.3,0.4,0.5,0.7,0.6s0.7,0,0.9-0.3l3.3-3.3l2.2,2.2l-3.3,3.3C6.2,48,6,48.4,6.1,48.7s0.3,0.6,0.6,0.7c0.9,0.4,2,0.6,3,0.6
		c2.1,0,4-0.8,5.5-2.3c2.1-2.1,2.8-5.3,1.8-8.1L39.6,17z M38.8,8.3l2-2C41,6,41.4,5.9,41.8,6l2.8,0.7c0.1,0,0.1,0.1,0.2,0.1
		C45,6.9,45.1,7,45.2,7.2c0,0.1,0.1,0.1,0.1,0.2l0.7,2.7c0.1,0.3,0,0.7-0.3,1l-2,2c-0.2,0.2-0.4,0.3-0.7,0.3l0,0l0,0
		c-0.1,0-0.2,0-0.3,0L40,12.7c-0.1,0-0.1-0.1-0.2-0.1c-0.2-0.1-0.3-0.2-0.4-0.4c0-0.1-0.1-0.1-0.1-0.2l-0.7-2.8
		C38.4,8.9,38.5,8.5,38.8,8.3z"/>
</g>
</svg>
