<?xml version="1.0" encoding="utf-8"?>
<!-- Generator: Adobe Illustrator 22.0.1, SVG Export Plug-In . SVG Version: 6.00 Build 0)  -->
<svg version="1.1" id="Calque_1" xmlns="http://www.w3.org/2000/svg" xmlns:xlink="http://www.w3.org/1999/xlink" x="0px" y="0px"
	 viewBox="0 0 425.2 425.2" style="enable-background:new 0 0 425.2 425.2;" xml:space="preserve">
<style type="text/css">
	.st0{fill:#FFFFFF;}
</style>
<g>
	<path class="st0" d="M86.1,187.6L69.3,189c-1.1,11.3-2.1,22.5-2.7,36.2C66,238.9,66,255,66.8,271.1c0.8,16.1,2.5,32.3,5.2,47.9
		c2.6,15.6,6.2,30.7,9,41.2c2.8,10.5,5,16.6,7.1,22.6c9.6-1.4,19.2-2.8,28.4-3.6s18.2-1,28-0.6c9.8,0.4,20.5,1.4,30.8,3.4
		c10.4,1.9,20.4,4.7,29.5,6.9c9.2,2.1,17.5,3.7,27.2,5c9.7,1.3,21,2.4,32.7,2c11.7-0.4,23.7-2.3,31.2-3.7c7.5-1.5,10.5-2.6,13.6-6
		c3.1-3.5,6.3-9.3,8.1-14.9c1.7-5.6,2-10.9,0.9-15.2c-1-4.2-3.2-7.3-5.5-10.4c4.8-1,9.6-2,13.9-3.9c4.3-1.9,7.9-4.7,10.8-8.2
		c2.8-3.5,4.8-7.5,5.9-12.6c1.1-5,1.4-11,0.6-15.5c-0.7-4.5-2.4-7.6-4.3-10.3c-2-2.8-4.3-5.2-6.6-7.7c4.3-2.8,8.6-5.6,12.3-8.4
		c3.7-2.8,6.8-5.6,9.1-9.5c2.2-3.8,3.6-8.5,4.1-12.6c0.5-4.2,0.1-7.8-1-11.1c-1.1-3.3-2.7-6.4-5.5-9.8c-2.8-3.4-6.9-7.1-9.4-9.3
		c-2.6-2.2-3.7-2.8-4.9-3.5c3.7-3.4,7.5-6.8,10.5-10.3c3.1-3.4,5.6-6.9,7-11.3s1.6-9.7,1.2-14.3c-0.4-4.5-1.4-8.1-3.1-11.1
		c-1.7-3.1-3.9-5.5-6.8-8c-2.9-2.5-6.3-5.1-9.6-6.7c-3.2-1.7-6.2-2.3-12.4-3.2c-6.2-0.9-15.7-1.9-27.1-2
		c-11.3-0.2-24.5,0.5-33.1,0.7c-8.7,0.2-12.8,0.1-17-0.1c3.2-5.2,6.4-10.4,11.1-16.8c4.7-6.3,11-13.9,16.1-21.4
		c5.1-7.5,9-15.1,11.7-23.3c2.7-8.2,4.3-17.1,4.9-24.5c0.6-7.5,0.3-13.4-1-20c-1.2-6.6-3.3-13.9-6-19.6c-2.7-5.8-6.1-10.1-9.6-13.5
		c-3.4-3.4-6.9-6-11-7.3c-4.1-1.4-8.9-1.5-13.4-1.4c-4.5,0.1-8.7,0.5-12.3,1.9c-3.6,1.3-6.7,3.6-8.9,5.9c-2.2,2.3-3.5,4.6-3.9,7.9
		c-0.4,3.2,0,7.5-0.5,13.1c-0.5,5.6-2,12.7-4,18.6c-2,5.9-4.6,10.5-8.4,16c-3.8,5.5-8.8,11.9-16.6,19.3
		c-7.8,7.5-18.3,15.9-27.5,23.9c-9.3,7.9-17.3,15.4-23.2,21.4c-5.9,6-9.7,10.6-13.8,16.4c-4.1,5.8-8.6,12.8-12.9,18.2
		c-4.4,5.5-8.7,9.5-14.2,11.9C98.7,186.1,92.1,187,86.1,187.6z"/>
</g>
</svg>
